Normalized EMG Linear Envelopes
nRows=214
nColumns=4

endheader
time	 med_gas_r	  soleus_r	 tib_ant_r	
2.69456	  0.008799	  0.022668	  0.038620	
2.72782	  0.008445	  0.021362	  0.038921	
2.76109	  0.008143	  0.020216	  0.039222	
2.79435	  0.007933	  0.019335	  0.039516	
2.82762	  0.007818	  0.018762	  0.039780	
2.86089	  0.007776	  0.018506	  0.039986	
2.89415	  0.007779	  0.018565	  0.040105	
2.92742	  0.007811	  0.018938	  0.040124	
2.96069	  0.007864	  0.019610	  0.040046	
2.99395	  0.007938	  0.020548	  0.039887	
3.02722	  0.008029	  0.021690	  0.039670	
3.06048	  0.008126	  0.022931	  0.039426	
3.09375	  0.008216	  0.024083	  0.039190	
3.12702	  0.008288	  0.024907	  0.039000	
3.16028	  0.008341	  0.025208	  0.038886	
3.19355	  0.008384	  0.024948	  0.038866	
3.22681	  0.008435	  0.024262	  0.038945	
3.26008	  0.008506	  0.023365	  0.039107	
3.29335	  0.008596	  0.022449	  0.039304	
3.32661	  0.008695	  0.021630	  0.039461	
3.35988	  0.008786	  0.020965	  0.039497	
3.39315	  0.008860	  0.020463	  0.039363	
3.42641	  0.008917	  0.020089	  0.039071	
3.45968	  0.008971	  0.019773	  0.038683	
3.49294	  0.009047	  0.019442	  0.038275	
3.52621	  0.009157	  0.019060	  0.037904	
3.55948	  0.009276	  0.018642	  0.037594	
3.59274	  0.009340	  0.018239	  0.037344	
3.62601	  0.009269	  0.017915	  0.037149	
3.65927	  0.009012	  0.017729	  0.037011	
3.69254	  0.008584	  0.017712	  0.036949	
3.72581	  0.008065	  0.017852	  0.036994	
3.75907	  0.007568	  0.018091	  0.037188	
3.79234	  0.007190	  0.018343	  0.037573	
3.8256	  0.006987	  0.018540	  0.038186	
3.85887	  0.006968	  0.018647	  0.039022	
3.89214	  0.007109	  0.018670	  0.039999	
3.9254	  0.007373	  0.018625	  0.040932	
3.95867	  0.007727	  0.018530	  0.041570	
3.99194	  0.008137	  0.018394	  0.041691	
4.0252	  0.008563	  0.018227	  0.041194	
4.05847	  0.008953	  0.018033	  0.040121	
4.09173	  0.009251	  0.017812	  0.038593	
4.125	  0.009419	  0.017556	  0.036714	
4.15827	  0.009452	  0.017263	  0.034546	
4.19153	  0.009377	  0.016951	  0.032137	
4.2248	  0.009231	  0.016672	  0.029614	
4.25806	  0.009054	  0.016541	  0.027269	
4.29133	  0.008887	  0.016762	  0.025651	
4.3246	  0.008792	  0.017618	  0.025610	
4.35786	  0.008849	  0.019429	  0.028303	
4.39113	  0.009146	  0.022519	  0.035126	
4.4244	  0.009764	  0.027237	  0.047603	
4.45766	  0.010776	  0.033981	  0.067187	
4.49093	  0.012244	  0.043119	  0.094935	
4.52419	  0.014191	  0.054762	  0.131060	
4.55746	  0.016566	  0.068536	  0.174545	
4.59073	  0.019250	  0.083608	  0.223139	
4.62399	  0.022094	  0.098981	  0.273864	
4.65726	  0.024980	  0.113796	  0.323785	
4.69052	  0.027822	  0.127394	  0.370498	
4.72379	  0.030538	  0.139185	  0.412105	
4.75706	  0.033034	  0.148619	  0.447058	
4.79032	  0.035254	  0.155397	  0.474370	
4.82359	  0.037225	  0.159755	  0.494145	
4.85685	  0.039071	  0.162563	  0.507793	
4.89012	  0.040955	  0.165138	  0.517462	
4.92339	  0.043012	  0.168844	  0.525003	
4.95665	  0.045303	  0.174602	  0.531201	
4.98992	  0.047776	  0.182477	  0.535760	
5.02319	  0.050254	  0.191602	  0.537864	
5.05645	  0.052473	  0.200560	  0.536812	
5.08972	  0.054200	  0.208065	  0.532315	
5.12298	  0.055345	  0.213491	  0.524442	
5.15625	  0.055998	  0.216928	  0.513533	
5.18952	  0.056334	  0.218872	  0.500395	
5.22278	  0.056487	  0.219860	  0.486706	
5.25605	  0.056493	  0.220287	  0.475006	
5.28931	  0.056333	  0.220379	  0.467888	
5.32258	  0.056037	  0.220298	  0.466846	
5.35585	  0.055782	  0.220407	  0.471827	
5.38911	  0.055913	  0.221588	  0.481907	
5.42238	  0.056859	  0.225264	  0.496385	
5.45565	  0.058952	  0.232824	  0.515233	
5.48891	  0.062225	  0.244681	  0.538491	
5.52218	  0.066301	  0.259620	  0.565075	
5.55544	  0.070481	  0.274997	  0.591897	
5.58871	  0.073977	  0.287653	  0.614089	
5.62198	  0.076153	  0.294941	  0.626618	
5.65524	  0.076669	  0.295340	  0.626638	
5.68851	  0.075488	  0.288635	  0.615157	
5.72177	  0.072835	  0.275866	  0.596717	
5.75504	  0.069141	  0.259112	  0.577238	
5.78831	  0.064967	  0.241052	  0.561528	
5.82157	  0.060872	  0.224302	  0.551950	
5.85484	  0.057275	  0.210834	  0.548477	
5.8881	  0.054422	  0.201798	  0.549373	
5.92137	  0.052461	  0.197807	  0.551933	
5.95464	  0.051535	  0.199309	  0.553306	
5.9879	  0.051793	  0.206613	  0.551588	
6.02117	  0.053306	  0.219535	  0.546844	
6.05444	  0.055982	  0.237046	  0.541491	
6.0877	  0.059573	  0.257327	  0.539637	
6.12097	  0.063746	  0.278181	  0.545419	
6.15423	  0.068146	  0.297430	  0.560938	
6.1875	  0.072398	  0.313035	  0.584856	
6.22077	  0.076121	  0.323143	  0.612666	
6.25403	  0.078986	  0.326368	  0.638720	
6.2873	  0.080777	  0.322274	  0.658682	
6.32056	  0.081378	  0.311617	  0.670686	
6.35383	  0.080687	  0.296023	  0.674679	
6.3871	  0.078561	  0.277316	  0.671158	
6.42036	  0.074923	  0.257083	  0.660853	
6.45363	  0.069951	  0.236721	  0.645298	
6.4869	  0.064180	  0.217594	  0.626867	
6.52016	  0.058372	  0.200896	  0.607579	
6.55343	  0.053250	  0.187326	  0.587867	
6.58669	  0.049289	  0.177088	  0.566834	
6.61996	  0.046680	  0.170377	  0.543816	
6.65323	  0.045438	  0.167798	  0.519657	
6.68649	  0.045474	  0.170107	  0.496621	
6.71976	  0.046605	  0.177350	  0.477415	
6.75302	  0.048533	  0.188249	  0.464390	
6.78629	  0.050873	  0.200542	  0.459328	
6.81956	  0.053253	  0.212125	  0.463379	
6.85282	  0.055407	  0.222028	  0.476632	
6.88609	  0.057212	  0.230455	  0.497416	
6.91935	  0.058671	  0.238087	  0.522039	
6.95262	  0.059881	  0.245528	  0.545624	
6.98589	  0.061013	  0.253394	  0.563945	
7.01915	  0.062293	  0.262677	  0.575287	
7.05242	  0.063959	  0.274633	  0.581105	
7.08569	  0.066169	  0.289929	  0.584853	
7.11895	  0.068885	  0.307623	  0.589638	
7.15222	  0.071771	  0.324835	  0.596210	
7.18548	  0.074240	  0.337537	  0.602721	
7.21875	  0.075661	  0.342133	  0.606367	
7.25202	  0.075628	  0.336953	  0.605587	
7.28528	  0.074146	  0.322915	  0.601046	
7.31855	  0.071617	  0.303109	  0.594762	
7.35181	  0.068673	  0.281634	  0.588297	
7.38508	  0.065962	  0.262352	  0.581536	
7.41835	  0.063992	  0.248096	  0.572878	
7.45161	  0.063055	  0.240402	  0.560495	
7.48488	  0.063202	  0.239454	  0.543638	
7.51815	  0.064227	  0.244004	  0.523152	
7.55141	  0.065674	  0.251509	  0.501161	
7.58468	  0.066910	  0.258822	  0.480518	
7.61794	  0.067299	  0.263330	  0.464373	
7.65121	  0.066438	  0.263901	  0.455624	
7.68448	  0.064346	  0.261064	  0.455936	
7.71774	  0.061491	  0.256432	  0.464807	
7.75101	  0.058610	  0.251742	  0.479670	
7.78427	  0.056379	  0.248001	  0.497342	
7.81754	  0.055120	  0.245068	  0.515837	
7.85081	  0.054720	  0.241896	  0.535027	
7.88407	  0.054810	  0.237354	  0.555399	
7.91734	  0.055061	  0.231176	  0.575765	
7.9506	  0.055387	  0.224371	  0.591920	
7.98387	  0.055936	  0.218777	  0.597954	
8.01714	  0.056922	  0.216089	  0.589783	
8.0504	  0.058464	  0.217114	  0.568192	
8.08367	  0.060554	  0.221702	  0.538743	
8.11694	  0.063093	  0.229169	  0.508618	
8.1502	  0.065910	  0.238660	  0.483015	
8.18347	  0.068746	  0.249124	  0.463584	
8.21673	  0.071269	  0.259108	  0.449179	
8.25	  0.073143	  0.266787	  0.437577	
8.28327	  0.074148	  0.270449	  0.426917	
8.31653	  0.074239	  0.269197	  0.416536	
8.3498	  0.073532	  0.263423	  0.407314	
8.38306	  0.072235	  0.254750	  0.401481	
8.41633	  0.070589	  0.245452	  0.401737	
8.4496	  0.068830	  0.237630	  0.409906	
8.48286	  0.067155	  0.232571	  0.425841	
8.51613	  0.065709	  0.230647	  0.447363	
8.5494	  0.064613	  0.231792	  0.471440	
8.58266	  0.063991	  0.236026	  0.495858	
8.61593	  0.063934	  0.243388	  0.520000	
8.64919	  0.064417	  0.253349	  0.543946	
8.68246	  0.065293	  0.264509	  0.566597	
8.71573	  0.066388	  0.275125	  0.584680	
8.74899	  0.067604	  0.283979	  0.593863	
8.78226	  0.068889	  0.290665	  0.591332	
8.81552	  0.070154	  0.295154	  0.577784	
8.84879	  0.071232	  0.297307	  0.557281	
8.88206	  0.071957	  0.296850	  0.535126	
8.91532	  0.072227	  0.293656	  0.515288	
8.94859	  0.072009	  0.288048	  0.499026	
8.98185	  0.071349	  0.281115	  0.485346	
9.01512	  0.070453	  0.274984	  0.472636	
9.04839	  0.069755	  0.272627	  0.460242	
9.08165	  0.069834	  0.276959	  0.449024	
9.11492	  0.071167	  0.289618	  0.440848	
9.14819	  0.073875	  0.310154	  0.437520	
9.18145	  0.077595	  0.335839	  0.439767	
9.21472	  0.081483	  0.361922	  0.446567	
9.24798	  0.084371	  0.382360	  0.455060	
9.28125	  0.085082	  0.391269	  0.461245	
9.31452	  0.082835	  0.384906	  0.461384	
9.34778	  0.077561	  0.363102	  0.453452	
9.38105	  0.069907	  0.329132	  0.437722	
9.41431	  0.060922	  0.288051	  0.416041	
9.44758	  0.051625	  0.244690	  0.390258	
9.48085	  0.042741	  0.202529	  0.360900	
9.51411	  0.034678	  0.163694	  0.327074	
9.54738	  0.027645	  0.129448	  0.287703	
9.58065	  0.021754	  0.100548	  0.243197	
9.61391	  0.017045	  0.077360	  0.196231	
9.64718	  0.013473	  0.059914	  0.150993	
9.68044	  0.010924	  0.047954	  0.111474	
9.71371	  0.009235	  0.040904	  0.080007	
9.74698	  0.008212	  0.037811	  0.056843	
9.78024	  0.007647	  0.037396	  0.040664	
